<?xml version="1.0" encoding="UTF-8"?>
<svg width="461px" height="73px" viewBox="0 0 461 73" version="1.1" xmlns="http://www.w3.org/2000/svg" xmlns:xlink="http://www.w3.org/1999/xlink">
    <!-- Generator: Sketch 60.1 (88133) - https://sketch.com -->
    <title>whole-brand copy 2</title>
    <desc>Created with Sketch.</desc>
    <g id="Symbols" stroke="none" stroke-width="1" fill="none" fill-rule="evenodd">
        <g id="whole-brand-black">
            <g id="whole-brand-copy-2">
                <g id="sunflower-logo" fill="#F2E24E">
                    <path d="M38.2734747,52.5648948 C38.7567633,52.5648948 39.2348693,52.5415024 39.7068292,52.4957331 L39.6617819,52.3521318 C43.613966,64.6660464 38.3554921,67.895976 38.0385041,73 C36.9847938,71.0583281 31.3300469,60.6383271 36.5950568,52.468079 C37.1459729,52.5326604 37.7061529,52.5648948 38.2734747,52.5648948 Z M46.7761551,49.8787797 L46.5678889,49.7297134 C56.5290606,56.7805309 55.7299791,61.9398725 55.7299672,67.107189 C54.1920422,64.8854397 44.2736347,59.8609625 44.0070521,51.4060173 C44.9841581,50.9944916 45.9106054,50.4813136 46.7761551,49.8787797 Z M29.530069,49.7069058 L29.6649019,49.8044042 C30.1388441,50.1402603 30.6314045,50.4491675 31.1406078,50.7290438 C31.1756559,50.9151956 31.1921759,51.137713 31.1921759,51.4010021 C28.8276186,64.1674962 23.1303975,65.8569092 18.9833762,67.1071388 C20.0823656,64.1674962 21.6002055,53.596412 28.8276186,49.7007713 C29.0846228,49.7007713 29.3184148,49.7007713 29.530069,49.7069058 Z M67.6169895,54.95009 L67.3377208,54.9495994 C64.7023628,54.9373757 54.3780422,54.6206149 50.3684594,46.4121381 C51.098121,45.4464076 51.7252554,44.3915013 52.2333885,43.2653884 C63.6218898,45.8688743 63.6899152,52.1552865 67.6169895,54.95009 Z M24.3404837,44.0853 C24.5379761,44.2066063 24.7205317,44.3138125 24.8865443,44.412221 C25.1916073,44.9711596 25.5285553,45.5092848 25.8936985,46.0238859 C25.8364774,46.1850509 25.751674,46.368331 25.6372812,46.5791225 C15.9975868,57.156003 12.1772704,52.6899551 7.86401354,54.9498553 C8.9319739,52.9819248 11.5028046,44.0852121 24.3404837,44.0853 Z M22.8525883,34.8759696 L22.8770178,34.9104529 C22.8414825,35.3612073 22.8233593,35.8171734 22.8233593,36.2776018 C22.8233593,36.7843798 22.8453149,37.2857519 22.8882781,37.7807187 L22.8525897,37.8309909 L22.8525897,37.8309909 C9.45561904,43.1110542 4.53474181,36.7738621 0.000182138277,35.1953031 C5.92089927,36.1295576 15.1289318,28.8769177 22.8525883,34.8759696 Z M77,35.074516 C72.4654066,36.6530837 67.5444951,42.9903175 54.1474201,37.7102099 C53.957342,37.4548959 53.8103871,37.2210196 53.7065553,36.9989072 C53.7185836,36.7603597 53.72359,36.5195971 53.72359,36.2776018 C53.72359,36.0071678 53.7173378,35.7382732 53.7049775,35.4710698 C53.8068681,35.2481087 53.9550622,35.0124954 54.1474201,34.7551679 C61.8711324,28.7560782 71.0792384,36.0087739 77,35.074516 Z M67.6693348,17.9442585 C66.6416913,19.8378969 61.2378384,29.7955756 52.3598811,29.5767334 C51.8521685,28.3933474 51.2150988,27.2861569 50.4672171,26.2744693 C58.2802079,17.0849787 63.4310683,20.1649066 67.6693348,17.9442585 Z M24.0596135,29.4902942 C11.4306098,28.3252091 12.6496829,20.3502806 8.65338406,17.5062118 C10.7893369,17.5062118 21.2182755,18.1990304 25.0877761,27.5029585 L25.1590202,27.6628037 C24.8122625,28.2481964 24.4997939,28.8584838 24.2245781,29.4905418 L24.0596135,29.4902942 L24.0596135,29.4902942 Z M21.2925403,4.37880044 C23.1415993,5.51455403 32.0379538,11.3766393 32.0451408,21.3692818 C31.0678701,21.822309 30.1443953,22.3798471 29.2864521,23.027689 L29.3876352,23.0947062 C18.9814857,16.3868227 24.3314246,9.39704651 21.2925403,4.37880044 Z M54.9567642,4.37880044 L54.9562666,4.68459233 C54.9441693,7.50766239 54.6379539,18.5102392 46.8867862,22.7538186 C45.9588699,22.0960418 44.9591927,21.5411173 43.9028882,21.1052414 L43.8469539,21.3968898 C46.2115112,8.63039574 52.2834738,8.63039574 54.9567642,4.37880044 Z M37.1598054,1.54800617e-11 C38.7929338,4.31647263 43.1137001,11.7967014 38.8777866,20.0028567 C38.676425,19.9943925 38.4754022,19.9903089 38.2734747,19.9903089 C37.5199132,19.9903089 36.7789522,20.0471809 36.0542432,20.1570754 C36.0189355,20.1202174 35.983819,20.081317 35.9486345,20.0409867 C31.9964614,7.72710531 35.4101775,2.72188936 37.1598054,1.54800617e-11 Z" id="sunflower-icon"></path>
                    <path d="M38.3866095,42.8731552 C38.5925732,42.8731552 38.7963009,42.8637756 38.9973719,42.8454287 L38.9817144,42.7974222 C40.6204249,47.6892513 38.4400821,48.972374 38.308648,51 C37.8715537,50.2283154 35.5250525,46.0855966 37.7129968,42.8392485 C37.9351167,42.8617512 38.1595038,42.8731552 38.3866095,42.8731552 Z M41.9531072,41.8305516 L41.8452222,41.7556396 C45.9754642,44.5566493 45.6441377,46.6062507 45.6441327,48.6590203 C45.006678,47.7767141 40.8968028,45.781769 40.7835285,42.4250682 C41.1976241,42.2653357 41.588153,42.0654503 41.9531072,41.8305516 Z M34.6931119,41.7449015 L34.7953982,41.8145661 C35.0068018,41.9519856 35.2268795,42.077619 35.4546548,42.1905093 C35.4651095,42.2555414 35.4699266,42.3318636 35.4699266,42.4195762 C34.4895004,47.4911971 32.127238,48.1623338 30.4077414,48.6590004 C30.8634199,47.4911971 31.4927681,43.2917253 34.4895004,41.744142 C34.5617488,41.744142 34.629573,41.744142 34.6931119,41.7449015 Z M50.5728981,43.8294878 L50.4322113,43.8291633 C49.3078562,43.8224347 45.1231182,43.6761771 43.4517988,40.4970532 C43.7780394,40.1019103 44.0552755,39.6691436 44.2772646,39.2059193 C48.9167738,40.25077 48.954032,42.7256554 50.5728981,43.8294878 Z M32.6289811,39.5133383 L32.6661714,39.5357868 C32.8311209,39.8335966 33.0195918,40.117082 33.2291421,40.3838503 C33.2124623,40.4203315 33.1912112,40.4607212 33.1666776,40.504035 C29.1697311,44.7058094 27.5856975,42.931626 25.7972739,43.8293946 C26.2400867,43.0476139 27.3060409,39.5133034 32.6289811,39.5133383 Z M31.9231932,35.7901694 L31.9190935,35.8214455 C31.8949416,36.0446903 31.8825561,36.2713758 31.8825561,36.5008955 C31.8825561,36.6916518 31.8911113,36.8804505 31.9078664,37.0669433 L32.0120493,37.0287498 C26.4572077,39.1263091 24.4168441,36.6087945 22.5366609,35.9816957 C24.9689275,36.3494114 28.7391756,33.5245754 31.9231932,35.7901694 Z M54.4634146,35.9337118 C52.5832174,36.5608141 50.5428394,39.0783453 44.9879547,36.9807683 C44.9469198,36.9279596 44.9107321,36.8774596 44.8793916,36.8287258 C44.8877994,36.7209583 44.8906628,36.6112545 44.8906628,36.5008955 C44.8906628,36.3246572 44.8833603,36.1500899 44.8690355,35.9774682 C44.9009086,35.9234939 44.9412986,35.8666466 44.9879547,35.8068475 C48.1904695,33.4236475 52.0084647,36.3048554 54.4634146,35.9337118 Z M50.5946022,29.1285411 C50.168767,29.8803479 47.9306265,33.8317572 44.2535378,33.7498163 C44.0303933,33.2912026 43.7527666,32.8645594 43.4292858,32.476006 L43.288965,32.6356848 C46.6258234,28.7432087 48.8061662,30.0263314 50.5946022,29.1285411 Z M26.1245739,28.9545225 C27.0102128,28.9545225 31.3344069,29.2297518 32.938834,32.9258328 L32.964409,32.9804325 C32.8055128,33.2148758 32.6620341,33.4602174 32.5353903,33.7150685 L32.5125227,33.7153224 L32.5125227,33.7153224 C27.2761065,33.2524803 27.7815758,30.0843581 26.1245739,28.9545225 Z M31.3651996,23.7395235 C32.1321912,24.1908948 35.8235843,26.5213614 35.8235968,30.4939599 C35.745655,30.5764927 35.6848922,30.6557096 35.6295101,30.7290628 C35.3476951,30.8572774 35.077541,31.0055479 34.8201118,31.1712394 L34.7217024,31.1746093 L34.7217024,31.1746093 C30.4069575,28.5098337 32.6252248,25.7330733 31.3651996,23.7395235 Z M45.3235364,23.7395235 L45.323218,23.8829262 C45.3164734,25.053889 45.166829,29.4813511 41.8466619,31.1054565 C41.4913552,30.8851527 41.1142728,30.6994058 40.7185662,30.5504567 L40.7170297,30.5001343 L40.7170297,30.5001343 C41.6974559,25.4285134 44.2150989,25.4285134 45.3235364,23.7395235 Z M37.9443096,22 C38.622509,23.7174186 40.4185491,26.6955676 38.6484579,29.9614878 C38.5894736,30.0271698 38.5308433,30.083305 38.4724467,30.1298933 C38.4439647,30.1288179 38.4153088,30.1286358 38.3866095,30.1286358 C38.1451187,30.1286358 37.9067018,30.1415302 37.6720371,30.1666547 C37.5960499,30.1154372 37.5194796,30.0464495 37.4421168,29.9614879 C35.8034108,25.069672 37.2188541,23.0812985 37.9443096,22 Z" id="sunflower-icon-copy"></path>
                </g>
                <text id="Suicide-Prevention-t" font-family="Optima-BoldItalic, Optima" font-size="14" font-style="italic" font-weight="bold" letter-spacing="1.17375558" fill="#000000">
                    <tspan x="79.8931105" y="55">Suicide Prevention through awareness and education</tspan>
                </text>
                <text id="Grace-For-Two-Brothe" font-family="Optima-BoldItalic, Optima" font-size="23" font-style="italic" font-weight="bold" letter-spacing="1.92831274" fill="#000000">
                    <tspan x="90" y="33">Grace For Two Brothers</tspan>
                </text>
            </g>
        </g>
    </g>
</svg>