<?xml version="1.0" encoding="UTF-8"?>
<svg width="478px" height="73px" viewBox="0 0 478 73" version="1.1" xmlns="http://www.w3.org/2000/svg" xmlns:xlink="http://www.w3.org/1999/xlink">
    <!-- Generator: Sketch 60.1 (88133) - https://sketch.com -->
    <title>whole-brand</title>
    <desc>Created with Sketch.</desc>
    <g id="Symbols" stroke="none" stroke-width="1" fill="none" fill-rule="evenodd">
        <g id="whole-brand-white" transform="translate(-90.000000, -38.000000)">
            <g id="whole-brand" transform="translate(90.000000, 38.000000)">
                <g id="sunflower-logo" fill="#F2E24E">
                    <path d="M40.7587652,52.5648948 C41.2735446,52.5648948 41.7828023,52.5414926 42.285512,52.4957042 L42.2372223,52.3521318 C46.4460417,64.6660464 40.8461085,67.895976 40.5085184,73.0000106 C39.3864643,71.0584335 33.3651185,60.6394569 38.9704474,52.4694078 C39.5582026,52.5326687 40.1546821,52.5648948 40.7587652,52.5648948 Z M49.8139584,49.8785244 L49.5917778,49.7297134 C60.1997788,56.7805309 59.348809,61.9398725 59.3487962,67.107189 C57.711006,64.8854397 47.1485461,59.8609625 46.8646529,51.4060173 C47.9050955,50.994568 48.8919715,50.4812476 49.8139584,49.8785244 Z M31.4495255,49.7069582 L31.5286609,49.7625865 C32.0523538,50.1145252 32.5976266,50.4373542 33.1621065,50.7287244 C33.2000392,50.9150696 33.2176418,51.1376385 33.2176418,51.4010021 C30.6995419,64.1674962 24.6323714,65.8569092 20.216063,67.1071388 C21.3864153,64.1674962 23.0028163,53.596412 30.6995419,49.7007713 C30.9740119,49.7007713 31.2236217,49.7007713 31.4495255,49.7069582 Z M72.0077031,54.95009 L71.7185191,54.9496344 C68.9252949,54.9379881 57.9128396,54.628639 53.6388914,46.4116629 C54.416535,45.4457864 55.0839395,44.3915479 55.6247818,43.2661899 C67.753182,45.8689295 67.8256424,52.1552988 72.0077031,54.95009 Z M25.9210346,44.0853 C26.1310797,44.2064498 26.3252593,44.3135357 26.5018691,44.4118399 C26.8271619,44.9707314 27.1858613,45.5087072 27.5745698,46.0231742 C27.5144434,46.1844985 27.4240447,46.3680134 27.3020403,46.5791228 C17.0363911,57.156003 12.9680022,52.6899551 8.37466378,54.9498553 C9.51197221,52.9819248 12.24974,44.0852121 25.9210346,44.0853 Z M24.3365136,34.8759549 L24.3625597,34.9102001 C24.3247029,35.3610368 24.3053957,35.8170873 24.3053957,36.2776018 C24.3053957,36.7842743 24.3287672,37.2855432 24.3745013,37.7804097 L24.3365136,37.8309969 L24.3365136,37.8309969 C10.0694987,43.1111046 4.82904747,36.7738707 -5.45163914e-12,35.1953031 C6.30522669,36.1295609 16.1112616,28.8768652 24.3365136,34.8759549 Z M82,35.074516 C77.1709525,36.6530837 71.9305013,42.9903175 57.6634864,37.7102099 C57.461369,37.4552787 57.3050374,37.221721 57.1944916,36.9999063 C57.2067889,36.7610092 57.2121348,36.5199235 57.2121348,36.2776018 C57.2121348,36.00697 57.2054669,35.7378798 57.1922848,35.4704834 C57.3012883,35.2474105 57.4589412,35.0121142 57.6634864,34.7551679 C65.8887384,28.7560782 75.6947733,36.0087739 82,35.074516 Z M72.0634474,17.9442585 C70.969021,19.8379884 65.2137656,29.7965374 55.7584895,29.5767261 C55.2188362,28.3927249 54.5404036,27.2856442 53.7439833,26.2740554 C62.064637,17.0849787 67.5499689,20.1649066 72.0634474,17.9442585 Z M25.6219261,29.4902942 C12.1728572,28.3252091 13.4710908,20.3502806 9.21529212,17.5062118 C11.4899432,17.5062118 22.5960856,18.1990304 26.7168524,27.5029585 L26.7924183,27.6632863 C26.4233164,28.248451 26.0907009,28.858489 25.797724,29.4902799 L25.6219261,29.4902942 L25.6219261,29.4902942 Z M22.6751738,4.37879865 C24.6442351,5.51451627 34.1177105,11.3762495 34.1259934,21.3682853 C33.0854938,21.8221786 32.101928,22.3797727 31.1881655,23.027692 L31.2959232,23.0947062 C20.2140497,16.3868227 25.9113872,9.39704651 22.6751738,4.37879865 Z M58.5253852,4.37880044 L58.5252501,4.56275677 C58.5199913,7.17506386 58.310075,18.4469073 49.9307977,22.7541193 C48.9428265,22.0958483 47.8785021,21.5410864 46.7539036,21.1053106 L46.6941587,21.3968898 C49.2122586,8.63039574 55.6785045,8.63039574 58.5253852,4.37880044 Z M39.5727798,8.92619312e-12 C41.3119548,4.316471 45.9132876,11.7966957 41.4023234,20.0028474 C41.1881195,19.9943971 40.9739247,19.9903089 40.7587652,19.9903089 C39.9562818,19.9903089 39.1672166,20.0471794 38.3954582,20.1570711 C38.3578275,20.1202174 38.3204307,20.081317 38.2829615,20.0409867 C34.0741537,7.72710531 37.7095397,2.72188936 39.5727798,8.92619312e-12 Z" id="sunflower-icon"></path>
                    <path d="M40.8792465,42.8731552 C41.0982169,42.8731552 41.3148141,42.863807 41.5285922,42.8455209 L41.5129946,42.7974222 C43.2581149,47.6892513 40.9361913,48.972374 40.7962226,51 C40.3307294,50.2282887 37.8317013,46.0853102 40.1621344,42.8389117 C40.3985661,42.8617574 40.6374595,42.8731552 40.8792465,42.8731552 Z M44.6767218,41.8309221 L44.5624444,41.7556396 C48.9608839,44.5566493 48.6080427,46.6062507 48.6080375,48.6590203 C47.9292532,47.7767968 43.5532595,45.7821428 43.4318436,42.4260118 C43.8724109,42.2654935 44.2881734,42.0657037 44.6767218,41.8309221 Z M36.945606,41.7448981 L37.125087,41.8568838 C37.3286914,41.9779235 37.5396384,42.0894044 37.7571779,42.1906363 C37.7680387,42.2555414 37.7731686,42.3318636 37.7731686,42.4195762 C36.7290784,47.4911971 34.2134223,48.1623338 32.38227,48.6590004 C32.8675381,47.4911971 33.5377531,43.2917253 36.7290784,41.744142 C36.8059024,41.744142 36.8780292,41.744142 36.945606,41.7448981 Z M53.8568525,43.8294878 L53.7070302,43.8291633 C52.5097903,43.8224354 48.0541231,43.6762077 46.2739028,40.4980507 C46.6202658,40.1025553 46.9154309,39.6700318 47.1518232,39.2070721 C52.0931986,40.2514448 52.1331003,42.7258058 53.8568525,43.8294878 Z M34.7477461,39.5133383 L34.7875432,39.5361119 C34.963195,39.8338656 35.1638869,40.1172984 35.3870196,40.3840188 C35.3691157,40.4203315 35.3464846,40.4607212 35.3203579,40.504035 C31.0638695,44.7058094 29.3769765,42.931626 27.4724216,43.8293946 C27.9439885,43.0476139 29.0791605,39.5133034 34.7477461,39.5133383 Z M33.9967563,35.790586 L33.9901372,35.8356998 C33.9654864,36.0543378 33.952852,36.2762592 33.952852,36.5008955 C33.952852,36.691496 33.9619478,36.880142 33.979762,37.0664861 L34.0907496,37.0287522 C28.175158,39.1263292 26.002288,36.608798 24,35.9816957 C26.5903867,36.3494356 30.6058264,33.5242034 33.9967563,35.790586 Z M58,35.9337118 C55.997712,36.5608141 53.824842,39.0783453 47.9092504,36.9807683 C47.8656747,36.9281091 47.8272317,36.8777456 47.7939214,36.8291399 C47.8025951,36.7208298 47.8056409,36.6111899 47.8056409,36.5008955 C47.8056409,36.32459 47.7978583,36.1499569 47.7825918,35.977271 C47.8164824,35.923586 47.8595245,35.866695 47.9092504,35.8068475 C51.3197208,33.4236475 55.3856377,36.3048554 58,35.9337118 Z M53.879966,29.1285411 C53.4265117,29.8802939 51.0433472,33.8311896 47.1279879,33.7498339 C46.8897343,33.2915383 46.5940328,32.8647787 46.2494758,32.4761261 L46.0999367,32.6356848 C49.6534743,28.7432087 51.9753978,30.0263314 53.879966,29.1285411 Z M35.0777193,32.9258328 L35.1047206,32.9807573 C34.9355696,33.2151441 34.7828286,33.4604225 34.6480058,33.7152048 L34.6237255,33.7153224 L34.6237255,33.7153224 C29.0472823,33.2524803 29.5855742,30.0843581 27.8209748,28.9545225 C28.7641228,28.9545225 33.3691087,29.2297518 35.0777193,32.9258328 Z M33.4019009,23.7395235 C34.2186971,24.1908948 38.149791,26.5213614 38.1498044,30.4939599 C38.0668014,30.5764927 38.002093,30.6557096 37.9431147,30.7290628 C37.6434844,30.8570158 37.3553282,31.0055086 37.0807664,31.1714761 L36.9763584,31.1746093 L36.9763584,31.1746093 C32.3814353,28.5098337 34.7437459,25.7330733 33.4019009,23.7395235 Z M48.2666231,23.7395235 L48.2663058,23.8793321 C48.2594246,25.0448619 48.1033514,29.4801529 44.563417,31.1057139 C44.1858498,30.8852804 43.7843239,30.6995328 43.3629664,30.550576 L43.3609926,30.5001343 L43.3609926,30.5001343 C44.4050829,25.4285134 47.0862092,25.4285134 48.2666231,23.7395235 Z M40.4082258,22 C41.1304641,23.7174186 43.0431302,26.6955676 41.1580981,29.9614878 C41.0950035,30.0274626 41.0322893,30.0838053 40.9698258,30.1305159 C40.9394906,30.1288129 40.909391,30.1286358 40.8792465,30.1286358 C40.6220258,30.1286358 40.3680799,30.1415351 40.1181314,30.1666689 C40.0374896,30.1155538 39.9558791,30.0465213 39.873423,29.9614879 C38.1283076,25.069672 39.6356628,23.0812985 40.4082258,22 Z" id="sunflower-icon-copy"></path>
                </g>
                <text id="Suicide-Prevention-t" font-family="Optima-BoldItalic, Optima" font-size="14" font-style="italic" font-weight="bold" letter-spacing="1.17375558" fill="#FFFFFF">
                    <tspan x="96.8931105" y="54.6076923">Suicide Prevention through awareness and education</tspan>
                </text>
                <text id="Grace-For-Two-Brothe" font-family="Optima-BoldItalic, Optima" font-size="23" font-style="italic" font-weight="bold" letter-spacing="1.92831274" fill="#FFFFFF">
                    <tspan x="96" y="33">Grace For Two Brothers</tspan>
                </text>
            </g>
        </g>
    </g>
</svg>